<svg fill="#fff" viewBox="0 0 448 512" xmlns="http://www.w3.org/2000/svg">
<path d="M224.1 141c-63.6 0-114.9 51.3-114.9 114.9s51.3 114.9 114.9 114.9S339 319.5 339 255.9 287.7 141 224.1 141zm0 189.6c-41.2 0-74.7-33.4-74.7-74.7s33.5-74.7 74.7-74.7 74.7 33.5 74.7 74.7-33.4 74.7-74.7 74.7zm146.4-194.3c0 14.9-12 26.9-26.9 26.9s-26.9-12-26.9-26.9 12-26.9 26.9-26.9 26.9 12 26.9 26.9zm76.1 27.2c-1.7-35.3-9.9-66.7-36.2-93S350.6 37 315.3 35.3C280.3 33.5 166.6 33.5 131.6 35.3c-35.3 1.7-66.7 9.9-93 36.2S37 97.4 35.3 132.6C33.5 167.6 33.5 281.3 35.3 316.3c1.7 35.3 9.9 66.7 36.2 93s57.7 34.5 93 36.2c35 1.7 148.7 1.7 183.7 0 35.3-1.7 66.7-9.9 93-36.2s34.5-57.7 36.2-93c1.7-35 1.7-148.7 0-183.7z"/>
</svg>