<?xml version="1.0" encoding="UTF-8"?>
<svg xmlns="http://www.w3.org/2000/svg" width="524" height="524" viewBox="155 80 524 524">
  <path fill="#FFFFFF" fill-rule="evenodd" d="
    M 577.27 343.98 L 576.17 343.98 L 576.04 342.75 L 560.20 342.75 L 560.07 343.98 L 552.83 343.98 L 552.70 342.75 L 538.08 342.75 L 537.96 343.98 L 527.03 343.98 L 526.90 345.21 L 524.57 345.21 L 524.45 346.44 L 522.11 346.44 L 521.99 347.67 L 519.66 347.67 L 519.53 348.89 L 517.20 348.89 L 517.08 350.12 L 514.74 350.12 L 514.62 351.35 L 512.29 351.35 L 512.16 352.58 L 509.83 352.58 L 509.83 353.69 L 508.60 353.81 L 508.60 354.91 L 507.37 355.04 L 507.37 356.14 L 506.14 356.27 L 506.14 357.37 L 504.91 357.49 L 504.91 358.60 L 503.69 358.72 L 503.56 359.95 L 501.23 359.95 L 501.23 361.06 L 500.00 361.18 L 500.00 362.29 L 498.77 362.41 L 498.65 363.64 L 497.54 363.64 L 497.54 365.97 L 496.31 366.09 L 496.31 367.20 L 495.09 367.32 L 495.09 368.43 L 493.86 368.55 L 493.73 369.78 L 492.63 369.78 L 492.63 373.34 L 491.40 373.46 L 491.40 374.57 L 490.17 374.69 L 490.05 375.92 L 488.94 375.92 L 488.94 378.26 L 487.71 378.38 L 487.71 380.71 L 486.49 380.84 L 486.49 384.40 L 485.26 384.52 L 485.14 385.75 L 484.03 385.75 L 484.03 388.08 L 482.80 388.21 L 482.80 399.14 L 483.91 399.14 L 484.03 400.37 L 487.59 400.37 L 487.71 401.60 L 517.08 401.60 L 517.20 400.37 L 523.22 400.37 L 523.34 399.14 L 525.68 399.14 L 525.80 397.91 L 530.59 397.91 L 530.71 396.68 L 534.28 396.68 L 534.40 395.45 L 537.96 395.45 L 537.96 394.35 L 539.19 394.23 L 539.31 393.00 L 541.65 393.00 L 541.77 391.77 L 544.10 391.77 L 544.10 390.66 L 545.33 390.54 L 545.45 389.31 L 547.79 389.31 L 547.91 388.08 L 550.25 388.08 L 550.25 386.98 L 551.47 386.86 L 551.47 385.75 L 552.70 385.63 L 552.70 384.52 L 553.93 384.40 L 554.05 383.17 L 555.16 383.17 L 555.16 379.61 L 556.39 379.48 L 556.39 378.38 L 557.62 378.26 L 557.74 377.03 L 558.85 377.03 L 558.85 374.69 L 560.07 374.57 L 560.07 372.24 L 561.30 372.11 L 561.30 371.01 L 562.53 370.88 L 562.65 369.66 L 563.76 369.66 L 563.76 366.09 L 564.99 365.97 L 564.99 363.64 L 566.22 363.51 L 566.22 362.41 L 567.44 362.29 L 567.57 361.06 L 568.67 361.06 L 568.67 358.72 L 569.90 358.60 L 569.90 356.27 L 571.13 356.14 L 571.25 354.91 L 572.36 354.91 L 572.36 352.58 L 573.59 352.46 L 573.59 351.35 L 574.82 351.23 L 574.82 350.12 L 576.04 350.00 L 576.17 348.77 L 577.27 348.77 Z
    M 517.08 187.96 L 511.06 187.96 L 511.06 189.07 L 509.83 189.19 L 509.83 192.75 L 508.60 192.87 L 508.60 193.98 L 507.37 194.10 L 507.37 195.21 L 506.14 195.33 L 506.02 196.56 L 504.91 196.56 L 504.91 198.89 L 503.69 199.02 L 503.69 200.12 L 502.46 200.25 L 502.46 201.35 L 501.23 201.47 L 501.23 202.58 L 500.00 202.70 L 500.00 203.81 L 498.77 203.93 L 498.77 205.04 L 497.54 205.16 L 497.42 206.39 L 496.31 206.39 L 496.31 208.72 L 495.09 208.85 L 495.09 209.95 L 493.86 210.07 L 493.86 211.18 L 492.63 211.30 L 492.63 212.41 L 491.40 212.53 L 491.40 213.64 L 490.17 213.76 L 490.05 214.99 L 488.94 214.99 L 488.94 217.32 L 487.71 217.44 L 487.71 219.78 L 486.49 219.90 L 486.49 222.24 L 485.26 222.36 L 485.14 223.59 L 484.03 223.59 L 484.03 225.92 L 482.80 226.04 L 482.80 234.52 L 481.57 234.64 L 481.57 239.43 L 480.34 239.56 L 480.34 241.89 L 479.12 242.01 L 479.12 260.32 L 480.34 260.44 L 480.34 262.78 L 481.57 262.90 L 481.57 267.69 L 482.80 267.81 L 482.80 275.06 L 484.03 275.18 L 484.03 277.52 L 485.14 277.52 L 485.26 278.75 L 486.49 278.87 L 486.49 281.20 L 487.71 281.33 L 487.71 286.12 L 488.82 286.12 L 488.94 287.35 L 490.05 287.35 L 490.17 288.57 L 491.40 288.70 L 491.40 291.03 L 492.51 291.03 L 492.63 292.26 L 493.86 292.38 L 493.86 293.49 L 501.11 293.49 L 501.11 292.38 L 502.33 292.26 L 502.33 291.15 L 503.56 291.03 L 503.56 289.93 L 504.79 289.80 L 504.79 288.70 L 506.02 288.57 L 506.02 287.47 L 507.25 287.35 L 507.25 286.24 L 508.48 286.12 L 508.48 285.01 L 509.71 284.89 L 509.71 283.78 L 510.93 283.66 L 510.93 282.56 L 512.16 282.43 L 512.29 281.20 L 513.39 281.20 L 513.39 277.64 L 514.62 277.52 L 514.74 276.29 L 517.08 276.29 L 517.08 275.18 L 518.30 275.06 L 518.30 271.50 L 519.53 271.38 L 519.53 269.04 L 520.76 268.92 L 520.76 267.81 L 521.99 267.69 L 522.11 266.46 L 523.22 266.46 L 523.22 261.67 L 524.45 261.55 L 524.45 259.21 L 525.68 259.09 L 525.80 257.86 L 526.90 257.86 L 526.90 253.07 L 528.13 252.95 L 528.13 245.70 L 529.36 245.58 L 529.36 243.24 L 530.59 243.12 L 530.59 228.50 L 529.48 228.50 L 529.36 227.27 L 528.13 227.15 L 528.13 219.90 L 526.90 219.78 L 526.90 216.22 L 525.68 216.09 L 525.68 213.76 L 524.45 213.64 L 524.45 211.30 L 523.22 211.18 L 523.22 206.39 L 521.99 206.27 L 521.99 201.47 L 520.88 201.47 L 520.76 200.25 L 519.53 200.12 L 519.53 192.87 L 518.30 192.75 L 518.30 189.19 L 517.20 189.19 Z
    M 305.90 187.96 L 305.90 189.07 L 304.67 189.19 L 304.67 195.21 L 303.44 195.33 L 303.32 196.56 L 302.21 196.56 L 302.21 212.41 L 300.98 212.53 L 300.98 240.66 L 302.21 240.79 L 302.21 245.58 L 303.32 245.58 L 303.44 246.81 L 304.67 246.93 L 304.67 249.26 L 305.90 249.39 L 305.90 254.18 L 307.00 254.18 L 307.13 255.41 L 308.23 255.41 L 308.35 256.63 L 309.58 256.76 L 309.58 259.09 L 310.81 259.21 L 310.81 262.78 L 311.92 262.78 L 312.04 264.00 L 313.14 264.00 L 313.27 265.23 L 314.37 265.23 L 314.50 266.46 L 315.60 266.46 L 315.72 267.69 L 316.83 267.69 L 316.95 268.92 L 318.06 268.92 L 318.18 270.15 L 319.29 270.15 L 319.41 271.38 L 320.52 271.38 L 320.64 272.60 L 321.74 272.60 L 321.87 273.83 L 322.97 273.83 L 323.10 275.06 L 324.20 275.06 L 324.32 276.29 L 325.43 276.29 L 325.55 277.52 L 326.78 277.64 L 326.78 278.75 L 329.12 278.75 L 329.24 279.98 L 331.57 279.98 L 331.70 281.20 L 332.80 281.20 L 332.92 282.43 L 334.15 282.56 L 334.15 283.66 L 336.49 283.66 L 336.61 284.89 L 338.94 284.89 L 339.07 286.12 L 341.40 286.12 L 341.52 287.35 L 343.86 287.35 L 343.98 288.57 L 347.54 288.57 L 347.54 287.47 L 348.77 287.35 L 348.77 286.24 L 350.00 286.12 L 350.12 284.89 L 351.23 284.89 L 351.23 278.87 L 352.46 278.75 L 352.58 277.52 L 353.69 277.52 L 353.69 271.50 L 354.91 271.38 L 354.91 246.93 L 353.69 246.81 L 353.69 240.79 L 352.58 240.79 L 352.46 239.56 L 351.23 239.43 L 351.23 230.96 L 350.00 230.84 L 350.00 227.27 L 348.89 227.27 L 348.77 226.04 L 347.54 225.92 L 347.54 222.36 L 346.31 222.24 L 346.31 219.90 L 345.21 219.90 L 345.09 218.67 L 343.98 218.67 L 343.86 217.44 L 342.75 217.44 L 342.63 216.22 L 341.52 216.22 L 341.40 214.99 L 340.29 214.99 L 340.17 213.76 L 339.07 213.76 L 338.94 212.53 L 337.84 212.53 L 337.71 211.30 L 336.61 211.30 L 336.49 210.07 L 335.38 210.07 L 335.26 208.85 L 334.15 208.85 L 334.03 207.62 L 332.80 207.49 L 332.80 206.39 L 330.47 206.39 L 330.34 205.16 L 329.24 205.16 L 329.12 203.93 L 328.01 203.93 L 327.89 202.70 L 326.66 202.58 L 326.66 201.47 L 324.32 201.47 L 324.20 200.25 L 323.10 200.25 L 322.97 199.02 L 321.74 198.89 L 321.74 197.79 L 319.41 197.79 L 319.29 196.56 L 318.06 196.44 L 318.06 194.10 L 316.95 194.10 L 316.83 192.87 L 314.50 192.87 L 314.37 190.42 L 313.27 190.42 L 313.14 189.19 L 311.92 189.07 L 311.92 187.96 Z
    M 380.84 101.97 L 380.71 103.19 L 378.38 103.19 L 378.26 104.42 L 369.78 104.42 L 369.66 105.65 L 363.64 105.65 L 363.51 106.88 L 359.95 106.88 L 359.83 108.11 L 356.27 108.11 L 356.14 109.34 L 350.12 109.34 L 350.00 110.57 L 345.21 110.57 L 345.09 111.79 L 342.75 111.79 L 342.63 113.02 L 337.84 113.02 L 337.71 114.25 L 334.15 114.25 L 334.03 115.48 L 330.47 115.48 L 330.34 116.71 L 328.01 116.71 L 327.89 117.94 L 324.32 117.94 L 324.20 119.16 L 321.87 119.16 L 321.74 120.39 L 318.18 120.39 L 318.06 121.62 L 315.72 121.62 L 315.60 122.85 L 313.27 122.85 L 313.14 124.08 L 310.81 124.08 L 310.69 125.31 L 308.35 125.31 L 308.35 126.41 L 307.13 126.54 L 307.00 127.76 L 304.67 127.76 L 304.55 128.99 L 302.21 128.99 L 302.09 130.22 L 299.75 130.22 L 299.63 131.45 L 297.30 131.45 L 297.30 132.56 L 296.07 132.68 L 295.95 133.91 L 293.61 133.91 L 293.61 135.01 L 292.38 135.14 L 292.26 136.36 L 289.93 136.36 L 289.80 137.59 L 287.47 137.59 L 287.35 138.82 L 285.01 138.82 L 285.01 139.93 L 283.78 140.05 L 283.78 141.15 L 282.56 141.28 L 282.43 142.51 L 280.10 142.51 L 280.10 143.61 L 278.87 143.73 L 278.75 144.96 L 276.41 144.96 L 276.29 146.19 L 273.96 146.19 L 273.96 147.30 L 272.73 147.42 L 272.73 148.53 L 271.50 148.65 L 271.50 149.75 L 270.27 149.88 L 270.15 151.11 L 267.81 151.11 L 267.81 152.21 L 266.58 152.33 L 266.58 153.44 L 265.36 153.56 L 265.36 154.67 L 264.13 154.79 L 264.13 155.90 L 262.90 156.02 L 262.78 157.25 L 260.44 157.25 L 260.44 158.35 L 259.21 158.48 L 259.21 159.58 L 257.99 159.71 L 257.86 160.93 L 255.53 160.93 L 255.53 162.04 L 254.30 162.16 L 254.30 164.50 L 253.07 164.62 L 253.07 165.72 L 251.84 165.85 L 251.84 166.95 L 250.61 167.08 L 250.61 168.18 L 249.39 168.30 L 249.39 169.41 L 248.16 169.53 L 248.16 170.64 L 246.93 170.76 L 246.93 171.87 L 245.70 171.99 L 245.70 173.10 L 244.47 173.22 L 244.47 174.32 L 243.24 174.45 L 243.24 175.55 L 242.01 175.68 L 242.01 176.78 L 240.79 176.90 L 240.79 178.01 L 239.56 178.13 L 239.56 179.24 L 238.33 179.36 L 238.33 180.47 L 237.10 180.59 L 237.10 181.70 L 235.87 181.82 L 235.75 183.05 L 234.64 183.05 L 234.64 185.38 L 233.42 185.50 L 233.42 186.61 L 232.19 186.73 L 232.19 187.84 L 230.96 187.96 L 230.96 189.07 L 229.73 189.19 L 229.73 190.29 L 228.50 190.42 L 228.50 191.52 L 227.27 191.65 L 227.15 192.87 L 226.04 192.87 L 226.04 195.21 L 224.82 195.33 L 224.82 196.44 L 223.59 196.56 L 223.59 197.67 L 222.36 197.79 L 222.24 199.02 L 221.13 199.02 L 221.13 202.58 L 219.90 202.70 L 219.90 203.81 L 218.67 203.93 L 218.55 205.16 L 217.44 205.16 L 217.44 207.49 L 216.22 207.62 L 216.22 208.72 L 214.99 208.85 L 214.86 210.07 L 213.76 210.07 L 213.76 212.41 L 212.53 212.53 L 212.41 213.76 L 211.30 213.76 L 211.30 217.32 L 210.07 217.44 L 209.95 218.67 L 208.85 218.67 L 208.85 221.01 L 207.62 221.13 L 207.62 224.69 L 206.39 224.82 L 206.39 225.92 L 205.16 226.04 L 205.04 227.27 L 203.93 227.27 L 203.93 229.61 L 202.70 229.73 L 202.70 232.06 L 201.47 232.19 L 201.47 235.75 L 200.25 235.87 L 200.12 237.10 L 199.02 237.10 L 199.02 239.43 L 197.79 239.56 L 197.79 241.89 L 196.56 242.01 L 196.44 243.24 L 195.33 243.24 L 195.33 248.03 L 194.10 248.16 L 194.10 250.49 L 192.87 250.61 L 192.87 254.18 L 191.65 254.30 L 191.52 255.53 L 190.42 255.53 L 190.42 259.09 L 189.19 259.21 L 189.19 264.00 L 187.96 264.13 L 187.96 268.92 L 186.73 269.04 L 186.61 270.27 L 185.50 270.27 L 185.50 276.29 L 184.28 276.41 L 184.28 281.20 L 183.05 281.33 L 183.05 287.35 L 181.82 287.47 L 181.82 289.80 L 180.59 289.93 L 180.59 297.17 L 179.36 297.30 L 179.36 305.77 L 178.13 305.90 L 178.01 307.13 L 176.90 307.13 L 176.90 310.69 L 178.13 310.81 L 178.13 319.29 L 176.90 319.41 L 176.90 324.20 L 175.68 324.32 L 175.68 361.06 L 176.90 361.18 L 176.90 367.20 L 178.13 367.32 L 178.13 375.80 L 176.90 375.92 L 176.90 379.48 L 178.01 379.48 L 178.13 380.71 L 179.36 380.84 L 179.36 388.08 L 180.59 388.21 L 180.59 396.68 L 181.70 396.68 L 181.82 397.91 L 183.05 398.03 L 183.05 405.28 L 184.28 405.41 L 184.28 410.20 L 185.50 410.32 L 185.50 416.34 L 186.61 416.34 L 186.73 417.57 L 187.96 417.69 L 187.96 420.02 L 189.19 420.15 L 189.19 424.94 L 190.42 425.06 L 190.42 429.85 L 191.52 429.85 L 191.65 431.08 L 192.87 431.20 L 192.87 433.54 L 194.10 433.66 L 194.10 438.45 L 195.33 438.57 L 195.33 442.14 L 196.44 442.14 L 196.56 443.37 L 197.79 443.49 L 197.79 447.05 L 199.02 447.17 L 199.02 449.51 L 200.12 449.51 L 200.25 450.74 L 201.47 450.86 L 201.47 453.19 L 202.70 453.32 L 202.70 456.88 L 203.93 457.00 L 203.93 459.34 L 205.04 459.34 L 205.16 460.57 L 206.27 460.57 L 206.39 461.79 L 207.62 461.92 L 207.62 464.25 L 208.85 464.37 L 208.85 467.94 L 209.95 467.94 L 210.07 469.16 L 211.18 469.16 L 211.30 470.39 L 212.53 470.52 L 212.53 472.85 L 213.76 472.97 L 213.76 475.31 L 214.86 475.31 L 214.99 476.54 L 216.09 476.54 L 216.22 477.76 L 217.44 477.89 L 217.44 481.45 L 218.55 481.45 L 218.67 482.68 L 219.78 482.68 L 219.90 483.91 L 221.01 483.91 L 221.13 485.14 L 222.36 485.26 L 222.36 487.59 L 223.46 487.59 L 223.59 488.82 L 224.69 488.82 L 224.82 490.05 L 225.92 490.05 L 226.04 491.28 L 227.27 491.40 L 227.27 493.73 L 228.38 493.73 L 228.50 494.96 L 229.61 494.96 L 229.73 496.19 L 230.96 496.31 L 230.96 498.65 L 232.06 498.65 L 232.19 499.88 L 234.52 499.88 L 234.64 501.11 L 235.87 501.23 L 235.87 504.79 L 236.98 504.79 L 237.10 506.02 L 238.21 506.02 L 238.33 507.25 L 239.43 507.25 L 239.56 508.48 L 240.66 508.48 L 240.79 509.71 L 241.89 509.71 L 242.01 510.93 L 243.12 510.93 L 243.24 512.16 L 244.35 512.16 L 244.47 513.39 L 245.58 513.39 L 245.70 514.62 L 246.81 514.62 L 246.93 515.85 L 248.03 515.85 L 248.16 517.08 L 249.26 517.08 L 249.39 518.30 L 250.49 518.30 L 250.61 519.53 L 251.72 519.53 L 251.84 520.76 L 253.07 520.88 L 253.07 521.99 L 255.41 521.99 L 255.53 524.45 L 256.63 524.45 L 256.76 525.68 L 257.99 525.80 L 257.99 526.90 L 260.32 526.90 L 260.44 528.13 L 262.78 528.13 L 262.90 530.59 L 264.00 530.59 L 264.13 531.82 L 266.46 531.82 L 266.58 533.05 L 268.92 533.05 L 269.04 534.28 L 270.15 534.28 L 270.27 535.50 L 271.38 535.50 L 271.50 536.73 L 272.73 536.86 L 272.73 537.96 L 275.06 537.96 L 275.18 539.19 L 276.29 539.19 L 276.41 540.42 L 277.52 540.42 L 277.64 541.65 L 278.87 541.77 L 278.87 542.87 L 281.20 542.87 L 281.33 544.10 L 282.43 544.10 L 282.56 545.33 L 283.78 545.45 L 283.78 546.56 L 286.12 546.56 L 286.24 547.79 L 287.47 547.91 L 287.47 549.02 L 289.80 549.02 L 289.93 550.25 L 292.26 550.25 L 292.38 551.47 L 294.72 551.47 L 294.84 552.70 L 297.17 552.70 L 297.30 553.93 L 299.63 553.93 L 299.75 555.16 L 300.98 555.28 L 300.98 556.39 L 303.32 556.39 L 303.44 557.62 L 304.67 557.74 L 304.67 558.85 L 308.23 558.85 L 308.35 560.07 L 310.69 560.07 L 310.81 561.30 L 314.37 561.30 L 314.50 562.53 L 316.83 562.53 L 316.95 563.76 L 319.29 563.76 L 319.41 564.99 L 322.97 564.99 L 323.10 566.22 L 325.43 566.22 L 325.55 567.44 L 327.89 567.44 L 328.01 568.67 L 331.57 568.67 L 331.70 569.90 L 334.03 569.90 L 334.15 571.13 L 336.49 571.13 L 336.61 572.36 L 340.17 572.36 L 340.29 573.59 L 346.31 573.59 L 346.44 574.82 L 348.77 574.82 L 348.89 576.04 L 351.23 576.04 L 351.35 577.27 L 356.14 577.27 L 356.27 578.50 L 364.74 578.50 L 364.86 579.73 L 369.66 579.73 L 369.78 580.96 L 373.34 580.96 L 373.46 582.19 L 380.71 582.19 L 380.84 583.42 L 397.91 583.42 L 398.03 584.64 L 439.68 584.64 L 439.80 583.42 L 454.42 583.42 L 454.55 582.19 L 463.02 582.19 L 463.14 580.96 L 466.71 580.96 L 466.83 579.73 L 471.62 579.73 L 471.74 578.50 L 480.22 578.50 L 480.34 577.27 L 483.91 577.27 L 484.03 576.04 L 486.36 576.04 L 486.49 574.82 L 491.28 574.82 L 491.40 573.59 L 496.19 573.59 L 496.31 572.36 L 501.11 572.36 L 501.23 571.13 L 503.56 571.13 L 503.69 569.90 L 506.02 569.90 L 506.14 568.67 L 509.71 568.67 L 509.83 567.44 L 512.16 567.44 L 512.29 566.22 L 514.62 566.22 L 514.74 564.99 L 518.30 564.99 L 518.43 563.76 L 520.76 563.76 L 520.88 562.53 L 523.22 562.53 L 523.34 561.30 L 525.68 561.30 L 525.80 560.07 L 528.13 560.07 L 528.26 558.85 L 530.59 558.85 L 530.71 557.62 L 533.05 557.62 L 533.17 556.39 L 535.50 556.39 L 535.50 555.28 L 536.73 555.16 L 536.86 553.93 L 539.19 553.93 L 539.31 552.70 L 541.65 552.70 L 541.77 551.47 L 544.10 551.47 L 544.23 550.25 L 546.56 550.25 L 546.56 549.14 L 547.79 549.02 L 547.79 547.91 L 549.02 547.79 L 549.14 546.56 L 551.47 546.56 L 551.60 545.33 L 553.93 545.33 L 553.93 544.23 L 555.16 544.10 L 555.28 542.87 L 557.62 542.87 L 557.74 541.65 L 560.07 541.65 L 560.07 540.54 L 561.30 540.42 L 561.30 539.31 L 562.53 539.19 L 562.65 537.96 L 564.99 537.96 L 565.11 536.73 L 567.44 536.73 L 567.44 535.63 L 568.67 535.50 L 568.67 533.17 L 569.90 533.05 L 569.90 531.94 L 571.13 531.82 L 571.13 530.71 L 572.36 530.59 L 572.36 529.48 L 573.59 529.36 L 573.59 528.26 L 574.82 528.13 L 574.94 526.90 L 577.27 526.90 L 577.27 525.80 L 578.50 525.68 L 578.50 524.57 L 579.73 524.45 L 579.85 523.22 L 582.19 523.22 L 582.19 522.11 L 583.42 521.99 L 583.42 519.66 L 584.64 519.53 L 584.77 518.30 L 587.10 518.30 L 587.10 517.20 L 588.33 517.08 L 588.33 514.74 L 589.56 514.62 L 589.68 513.39 L 592.01 513.39 L 592.01 512.29 L 593.24 512.16 L 593.24 509.83 L 594.47 509.71 L 594.47 508.60 L 595.70 508.48 L 595.70 507.37 L 596.93 507.25 L 596.93 506.14 L 598.16 506.02 L 598.16 504.91 L 599.39 504.79 L 599.39 503.69 L 600.61 503.56 L 600.61 502.46 L 601.84 502.33 L 601.97 501.11 L 603.07 501.11 L 603.07 498.77 L 604.30 498.65 L 604.30 497.54 L 605.53 497.42 L 605.53 496.31 L 606.76 496.19 L 606.88 494.96 L 607.99 494.96 L 607.99 492.63 L 609.21 492.51 L 609.21 491.40 L 610.44 491.28 L 610.44 490.17 L 611.67 490.05 L 611.67 488.94 L 612.90 488.82 L 612.90 487.71 L 614.13 487.59 L 614.25 486.36 L 615.36 486.36 L 615.36 482.80 L 616.58 482.68 L 616.58 481.57 L 617.81 481.45 L 617.94 480.22 L 619.04 480.22 L 619.04 477.89 L 620.27 477.76 L 620.39 476.54 L 621.50 476.54 L 621.50 474.20 L 622.73 474.08 L 622.73 472.97 L 623.96 472.85 L 624.08 471.62 L 625.18 471.62 L 625.18 468.06 L 626.41 467.94 L 626.41 465.60 L 627.64 465.48 L 627.64 464.37 L 628.87 464.25 L 628.99 463.02 L 630.10 463.02 L 630.10 460.69 L 631.33 460.57 L 631.33 458.23 L 632.56 458.11 L 632.56 455.77 L 633.78 455.65 L 633.78 453.32 L 635.01 453.19 L 635.01 449.63 L 636.24 449.51 L 636.36 448.28 L 637.47 448.28 L 637.47 445.95 L 638.70 445.82 L 638.70 443.49 L 639.93 443.37 L 639.93 438.57 L 641.15 438.45 L 641.28 437.22 L 642.38 437.22 L 642.38 434.89 L 643.61 434.77 L 643.61 429.98 L 644.84 429.85 L 644.84 427.52 L 646.07 427.40 L 646.19 426.17 L 647.30 426.17 L 647.30 421.38 L 648.53 421.25 L 648.53 416.46 L 649.75 416.34 L 649.75 412.78 L 650.98 412.65 L 651.11 411.43 L 652.21 411.43 L 652.21 404.18 L 653.44 404.05 L 653.44 398.03 L 654.67 397.91 L 654.67 393.12 L 655.90 393.00 L 655.90 390.66 L 657.13 390.54 L 657.13 379.61 L 658.35 379.48 L 658.35 367.32 L 659.58 367.20 L 659.58 319.41 L 658.35 319.29 L 658.35 305.90 L 657.13 305.77 L 657.13 294.84 L 655.90 294.72 L 655.90 292.38 L 654.67 292.26 L 654.67 287.47 L 653.44 287.35 L 653.44 281.33 L 652.21 281.20 L 652.21 273.96 L 651.11 273.96 L 650.98 272.73 L 649.75 272.60 L 649.75 269.04 L 648.53 268.92 L 648.53 262.90 L 647.30 262.78 L 647.30 260.44 L 646.19 260.44 L 646.07 259.21 L 644.84 259.09 L 644.84 254.30 L 643.61 254.18 L 643.61 249.39 L 642.38 249.26 L 642.38 246.93 L 641.28 246.93 L 641.15 245.70 L 639.93 245.58 L 639.93 243.24 L 638.70 243.12 L 638.70 239.56 L 637.47 239.43 L 637.47 237.10 L 636.36 237.10 L 636.24 235.87 L 635.01 235.75 L 635.01 232.19 L 633.78 232.06 L 633.78 229.73 L 632.68 229.73 L 632.56 228.50 L 631.33 228.38 L 631.33 226.04 L 630.10 225.92 L 630.10 222.36 L 628.87 222.24 L 628.87 219.90 L 627.76 219.90 L 627.64 218.67 L 626.54 218.67 L 626.41 217.44 L 625.18 217.32 L 625.18 214.99 L 624.08 214.99 L 623.96 213.76 L 622.85 213.76 L 622.73 212.53 L 621.50 212.41 L 621.50 208.85 L 620.27 208.72 L 620.27 206.39 L 619.16 206.39 L 619.04 205.16 L 617.94 205.16 L 617.81 203.93 L 616.58 203.81 L 616.58 201.47 L 615.48 201.47 L 615.36 200.25 L 614.25 200.25 L 614.13 199.02 L 613.02 199.02 L 612.90 197.79 L 611.67 197.67 L 611.67 194.10 L 610.57 194.10 L 610.44 192.87 L 609.34 192.87 L 609.21 191.65 L 608.11 191.65 L 607.99 190.42 L 606.88 190.42 L 606.76 189.19 L 605.65 189.19 L 605.53 187.96 L 604.42 187.96 L 604.30 186.73 L 603.07 186.61 L 603.07 184.28 L 601.97 184.28 L 601.84 183.05 L 600.74 183.05 L 600.61 181.82 L 599.51 181.82 L 599.39 180.59 L 598.28 180.59 L 598.16 179.36 L 597.05 179.36 L 596.93 178.13 L 595.82 178.13 L 595.70 176.90 L 594.59 176.90 L 594.47 175.68 L 593.37 175.68 L 593.24 174.45 L 592.14 174.45 L 592.01 173.22 L 590.91 173.22 L 590.79 171.99 L 589.68 171.99 L 589.56 170.76 L 588.45 170.76 L 588.33 169.53 L 587.22 169.53 L 587.10 168.30 L 586.00 168.30 L 585.87 167.08 L 584.77 167.08 L 584.64 165.85 L 583.54 165.85 L 583.42 164.62 L 582.31 164.62 L 582.19 163.39 L 581.08 163.39 L 580.96 162.16 L 579.85 162.16 L 579.73 160.93 L 578.62 160.93 L 578.50 159.71 L 577.40 159.71 L 577.27 158.48 L 576.17 158.48 L 576.04 157.25 L 574.82 157.13 L 574.82 156.02 L 572.48 156.02 L 572.36 154.79 L 571.25 154.79 L 571.13 153.56 L 570.02 153.56 L 569.90 152.33 L 568.80 152.33 L 568.67 151.11 L 567.57 151.11 L 567.44 149.88 L 566.34 149.88 L 566.22 148.65 L 564.99 148.53 L 564.99 147.42 L 562.65 147.42 L 562.53 146.19 L 560.20 146.19 L 560.07 144.96 L 558.85 144.84 L 558.85 143.73 L 556.51 143.73 L 556.39 142.51 L 555.16 142.38 L 555.16 141.28 L 552.83 141.28 L 552.70 140.05 L 550.37 140.05 L 550.25 138.82 L 547.91 138.82 L 547.79 137.59 L 546.68 137.59 L 546.56 136.36 L 545.33 136.24 L 545.33 135.14 L 543.00 135.14 L 542.87 133.91 L 541.65 133.78 L 541.65 132.68 L 539.31 132.68 L 539.19 131.45 L 536.86 131.45 L 536.73 130.22 L 534.40 130.22 L 534.28 128.99 L 531.94 128.99 L 531.82 127.76 L 530.71 127.76 L 530.59 126.54 L 529.36 126.41 L 529.36 125.31 L 524.57 125.31 L 524.45 124.08 L 522.11 124.08 L 521.99 122.85 L 519.66 122.85 L 519.53 121.62 L 517.20 121.62 L 517.08 120.39 L 514.74 120.39 L 514.62 119.16 L 512.29 119.16 L 512.16 117.94 L 508.60 117.94 L 508.48 116.71 L 506.14 116.71 L 506.02 115.48 L 501.23 115.48 L 501.11 114.25 L 498.77 114.25 L 498.65 113.02 L 493.86 113.02 L 493.73 111.79 L 491.40 111.79 L 491.28 110.57 L 486.49 110.57 L 486.36 109.34 L 481.57 109.34 L 481.45 108.11 L 475.43 108.11 L 475.31 106.88 L 472.97 106.88 L 472.85 105.65 L 466.83 105.65 L 466.71 104.42 L 458.23 104.42 L 458.11 103.19 L 455.77 103.19 L 455.65 101.97 L 439.80 101.97 L 439.68 100.74 L 396.81 100.74 L 396.68 101.97 Z
    M 201.47 293.49 L 203.81 293.49 L 203.93 292.26 L 206.27 292.26 L 206.39 291.03 L 211.18 291.03 L 211.30 292.26 L 214.86 292.26 L 214.99 293.49 L 221.01 293.49 L 221.13 294.72 L 229.61 294.72 L 229.73 295.95 L 235.75 295.95 L 235.87 297.17 L 238.21 297.17 L 238.33 298.40 L 243.12 298.40 L 243.24 299.63 L 249.26 299.63 L 249.39 300.86 L 251.72 300.86 L 251.84 302.09 L 254.18 302.09 L 254.30 303.32 L 259.09 303.32 L 259.21 304.55 L 264.00 304.55 L 264.13 305.77 L 266.46 305.77 L 266.58 307.00 L 268.92 307.00 L 269.04 308.23 L 272.60 308.23 L 272.73 309.46 L 276.29 309.46 L 276.41 310.69 L 278.75 310.69 L 278.87 311.92 L 281.20 311.92 L 281.33 313.14 L 283.66 313.14 L 283.78 314.37 L 284.89 314.37 L 285.01 315.60 L 286.24 315.72 L 286.24 316.83 L 288.57 316.83 L 288.70 318.06 L 291.03 318.06 L 291.15 319.29 L 292.26 319.29 L 292.38 320.52 L 293.49 320.52 L 293.61 321.74 L 294.84 321.87 L 294.84 322.97 L 297.17 322.97 L 297.30 324.20 L 298.40 324.20 L 298.53 325.43 L 299.63 325.43 L 299.75 326.66 L 300.86 326.66 L 300.98 327.89 L 302.09 327.89 L 302.21 329.12 L 303.32 329.12 L 303.44 330.34 L 304.67 330.47 L 304.67 331.57 L 307.00 331.57 L 307.13 332.80 L 309.46 332.80 L 309.58 335.26 L 310.69 335.26 L 310.81 336.49 L 313.14 336.49 L 313.27 337.71 L 314.37 337.71 L 314.50 338.94 L 315.72 339.07 L 315.72 340.17 L 318.06 340.17 L 318.18 341.40 L 319.29 341.40 L 319.41 342.63 L 320.52 342.63 L 320.64 343.86 L 321.74 343.86 L 321.87 345.09 L 322.97 345.09 L 323.10 346.31 L 324.20 346.31 L 324.32 347.54 L 325.43 347.54 L 325.55 348.77 L 326.66 348.77 L 326.78 350.00 L 327.89 350.00 L 328.01 351.23 L 329.12 351.23 L 329.24 352.46 L 330.34 352.46 L 330.47 353.69 L 331.57 353.69 L 331.70 354.91 L 332.80 354.91 L 332.92 356.14 L 334.15 356.27 L 334.15 362.29 L 331.70 362.41 L 331.57 363.64 L 329.24 363.64 L 329.24 364.74 L 328.01 364.86 L 327.89 363.64 L 325.55 363.64 L 325.43 362.41 L 323.10 362.41 L 322.97 361.18 L 321.87 361.18 L 321.74 359.95 L 320.64 359.95 L 320.52 358.72 L 319.41 358.72 L 319.29 357.49 L 318.06 357.37 L 318.06 356.27 L 315.72 356.27 L 315.60 355.04 L 313.27 355.04 L 313.14 353.81 L 311.92 353.69 L 311.92 352.58 L 309.58 352.58 L 309.46 351.35 L 307.13 351.35 L 307.00 350.12 L 305.77 350.00 L 305.77 348.89 L 302.21 348.89 L 302.09 347.67 L 299.75 347.67 L 299.63 346.44 L 296.07 346.44 L 295.95 345.21 L 293.61 345.21 L 293.49 343.98 L 273.96 343.98 L 273.83 345.21 L 271.50 345.21 L 271.38 346.44 L 262.90 346.44 L 262.78 347.67 L 244.47 347.67 L 244.47 348.77 L 243.24 348.89 L 243.24 354.91 L 244.35 354.91 L 244.47 356.14 L 245.58 356.14 L 245.70 357.37 L 246.81 357.37 L 246.93 358.60 L 248.03 358.60 L 248.16 359.83 L 249.26 359.83 L 249.39 361.06 L 250.49 361.06 L 250.61 362.29 L 251.72 362.29 L 251.84 363.51 L 253.07 363.64 L 253.07 365.97 L 254.18 365.97 L 254.30 367.20 L 255.41 367.20 L 255.53 368.43 L 256.63 368.43 L 256.76 369.66 L 257.99 369.78 L 257.99 373.34 L 259.09 373.34 L 259.21 374.57 L 260.32 374.57 L 260.44 375.80 L 261.55 375.80 L 261.67 377.03 L 262.90 377.15 L 262.90 379.48 L 264.00 379.48 L 264.13 380.71 L 265.23 380.71 L 265.36 381.94 L 266.46 381.94 L 266.58 383.17 L 267.69 383.17 L 267.81 384.40 L 268.92 384.40 L 269.04 385.63 L 270.15 385.63 L 270.27 386.86 L 271.50 386.98 L 271.50 388.08 L 273.83 388.08 L 273.96 389.31 L 275.06 389.31 L 275.18 390.54 L 276.41 390.66 L 276.41 391.77 L 281.20 391.77 L 281.33 393.00 L 283.66 393.00 L 283.78 394.23 L 286.12 394.23 L 286.24 395.45 L 288.57 395.45 L 288.70 396.68 L 294.72 396.68 L 294.84 397.91 L 299.63 397.91 L 299.75 399.14 L 307.00 399.14 L 307.13 400.37 L 314.37 400.37 L 314.50 399.14 L 320.52 399.14 L 320.64 397.91 L 329.12 397.91 L 329.24 396.68 L 336.49 396.68 L 336.61 395.45 L 338.94 395.45 L 339.07 394.23 L 341.40 394.23 L 341.40 393.12 L 342.63 393.00 L 342.63 384.52 L 345.09 384.40 L 345.21 383.17 L 347.54 383.17 L 347.67 381.94 L 348.77 381.94 L 348.89 383.17 L 351.23 383.17 L 351.35 384.40 L 353.69 384.40 L 353.81 386.86 L 354.91 386.86 L 355.04 388.08 L 356.27 388.21 L 356.27 391.77 L 357.49 391.89 L 357.49 394.23 L 358.72 394.35 L 358.72 396.68 L 359.95 396.81 L 359.95 400.37 L 361.06 400.37 L 361.18 401.60 L 362.41 401.72 L 362.41 406.51 L 363.51 406.51 L 363.64 407.74 L 364.86 407.86 L 364.86 411.43 L 366.09 411.55 L 366.09 416.34 L 367.32 416.46 L 367.32 422.48 L 368.43 422.48 L 368.55 423.71 L 369.78 423.83 L 369.78 433.54 L 371.01 433.66 L 371.01 448.28 L 372.24 448.40 L 372.24 466.71 L 371.01 466.83 L 371.01 476.54 L 369.78 476.66 L 369.78 481.45 L 368.55 481.57 L 368.43 482.80 L 367.32 482.80 L 367.32 487.59 L 366.09 487.71 L 366.09 491.28 L 364.86 491.40 L 364.86 493.73 L 363.64 493.86 L 363.51 495.09 L 362.41 495.09 L 362.41 498.65 L 361.18 498.77 L 361.18 501.11 L 359.95 501.23 L 359.95 502.33 L 358.72 502.46 L 358.60 503.69 L 357.49 503.69 L 357.49 506.02 L 356.27 506.14 L 356.27 507.25 L 355.04 507.37 L 354.91 508.60 L 353.81 508.60 L 353.81 510.93 L 352.58 511.06 L 352.58 513.39 L 351.35 513.51 L 351.35 514.62 L 350.12 514.74 L 350.12 515.85 L 348.89 515.97 L 348.89 517.08 L 347.67 517.20 L 347.67 518.30 L 346.44 518.43 L 346.44 519.53 L 345.21 519.66 L 345.09 520.88 L 342.75 520.88 L 342.75 521.99 L 341.52 522.11 L 341.52 523.22 L 340.29 523.34 L 340.17 524.57 L 337.84 524.57 L 337.84 525.68 L 336.61 525.80 L 336.61 526.90 L 335.38 527.03 L 335.26 528.26 L 332.92 528.26 L 332.80 529.48 L 330.47 529.48 L 330.34 530.71 L 328.01 530.71 L 327.89 531.94 L 325.55 531.94 L 325.43 533.17 L 323.10 533.17 L 322.97 534.40 L 318.18 534.40 L 318.06 535.63 L 315.72 535.63 L 315.60 536.86 L 312.04 536.86 L 311.92 535.63 L 309.58 535.63 L 309.46 534.40 L 307.13 534.40 L 307.00 533.17 L 304.67 533.17 L 304.55 531.94 L 302.21 531.94 L 302.09 530.71 L 300.86 530.59 L 300.86 529.48 L 298.53 529.48 L 298.40 528.26 L 297.30 528.26 L 297.17 527.03 L 296.07 527.03 L 295.95 525.80 L 294.72 525.68 L 294.72 524.57 L 292.38 524.57 L 292.26 523.34 L 289.93 523.34 L 289.80 522.11 L 288.57 521.99 L 288.57 520.88 L 286.24 520.88 L 286.12 519.66 L 285.01 519.66 L 284.89 518.43 L 283.78 518.43 L 283.66 517.20 L 282.43 517.08 L 282.43 515.97 L 280.10 515.97 L 279.98 514.74 L 277.64 514.74 L 277.52 513.51 L 276.29 513.39 L 276.29 511.06 L 275.18 511.06 L 275.06 509.83 L 272.73 509.83 L 272.60 508.60 L 271.50 508.60 L 271.38 507.37 L 270.15 507.25 L 270.15 506.14 L 267.81 506.14 L 267.69 504.91 L 266.58 504.91 L 266.46 503.69 L 265.36 503.69 L 265.23 502.46 L 264.13 502.46 L 264.00 501.23 L 262.90 501.23 L 262.78 500.00 L 261.67 500.00 L 261.55 498.77 L 260.44 498.77 L 260.32 497.54 L 259.21 497.54 L 259.09 496.31 L 257.99 496.31 L 257.86 495.09 L 256.76 495.09 L 256.63 493.86 L 255.41 493.73 L 255.41 491.40 L 254.30 491.40 L 254.18 490.17 L 252.95 490.05 L 252.95 487.71 L 251.84 487.71 L 251.72 486.49 L 249.39 486.49 L 249.26 485.26 L 248.03 485.14 L 248.03 482.80 L 246.93 482.80 L 246.81 481.57 L 245.70 481.57 L 245.58 480.34 L 244.35 480.22 L 244.35 477.89 L 243.24 477.89 L 243.12 476.66 L 242.01 476.66 L 241.89 475.43 L 240.79 475.43 L 240.66 474.20 L 239.43 474.08 L 239.43 471.74 L 238.33 471.74 L 238.21 470.52 L 237.10 470.52 L 236.98 469.29 L 235.75 469.16 L 235.75 466.83 L 234.52 466.71 L 234.52 464.37 L 233.42 464.37 L 233.29 463.14 L 232.19 463.14 L 232.06 461.92 L 230.84 461.79 L 230.84 459.46 L 229.73 459.46 L 229.61 458.23 L 228.38 458.11 L 228.38 455.77 L 227.27 455.77 L 227.15 454.55 L 225.92 454.42 L 225.92 450.86 L 224.69 450.74 L 224.69 448.40 L 223.46 448.28 L 223.46 445.95 L 222.36 445.95 L 222.24 444.72 L 221.01 444.59 L 221.01 441.03 L 219.90 441.03 L 219.78 439.80 L 218.55 439.68 L 218.55 437.35 L 217.32 437.22 L 217.32 434.89 L 216.09 434.77 L 216.09 431.20 L 214.86 431.08 L 214.86 428.75 L 213.64 428.62 L 213.64 426.29 L 212.41 426.17 L 212.41 422.60 L 211.18 422.48 L 211.18 420.15 L 209.95 420.02 L 209.95 415.23 L 208.72 415.11 L 208.72 412.78 L 207.49 412.65 L 207.49 409.09 L 206.27 408.97 L 206.27 404.18 L 205.04 404.05 L 205.04 398.03 L 203.93 398.03 L 203.81 396.81 L 202.58 396.68 L 202.58 390.66 L 201.35 390.54 L 201.35 383.29 L 200.12 383.17 L 200.12 373.46 L 199.02 373.46 L 198.89 372.24 L 197.67 372.11 L 197.67 361.18 L 196.44 361.06 L 196.44 324.32 L 197.67 324.20 L 197.67 313.27 L 198.89 313.14 L 199.02 311.92 L 200.12 311.92 L 200.12 300.98 L 201.35 300.86 Z
    M 632.56 286.12 L 632.68 292.26 L 633.78 292.26 L 633.91 293.49 L 635.14 293.61 L 635.14 300.86 L 636.36 300.98 L 636.36 308.23 L 637.59 308.35 L 637.59 324.20 L 638.82 324.32 L 638.82 326.66 L 640.05 326.78 L 640.05 358.60 L 638.82 358.72 L 638.82 362.29 L 637.59 362.41 L 637.59 375.80 L 636.36 375.92 L 636.36 384.40 L 635.14 384.52 L 635.14 391.77 L 633.91 391.89 L 633.78 393.12 L 632.68 393.12 L 632.68 399.14 L 631.45 399.26 L 631.45 404.05 L 630.22 404.18 L 630.22 408.97 L 628.99 409.09 L 628.99 411.43 L 627.76 411.55 L 627.76 415.11 L 626.54 415.23 L 626.54 418.80 L 625.31 418.92 L 625.31 422.48 L 624.08 422.60 L 624.08 424.94 L 622.85 425.06 L 622.85 427.40 L 621.62 427.52 L 621.62 431.08 L 620.39 431.20 L 620.27 432.43 L 619.16 432.43 L 619.16 436.00 L 617.94 436.12 L 617.94 439.68 L 616.71 439.80 L 616.71 442.14 L 615.48 442.26 L 615.36 443.49 L 614.25 443.49 L 614.25 445.82 L 613.02 445.95 L 613.02 449.51 L 611.79 449.63 L 611.79 451.97 L 610.57 452.09 L 610.57 453.19 L 609.34 453.32 L 609.21 454.55 L 608.11 454.55 L 608.11 458.11 L 606.88 458.23 L 606.88 459.34 L 605.65 459.46 L 605.53 460.69 L 604.42 460.69 L 604.42 463.02 L 603.19 463.14 L 603.19 465.48 L 601.97 465.60 L 601.97 466.71 L 600.74 466.83 L 600.74 467.94 L 599.51 468.06 L 599.39 469.29 L 598.28 469.29 L 598.28 472.85 L 597.05 472.97 L 597.05 474.08 L 595.82 474.20 L 595.82 475.31 L 594.59 475.43 L 594.47 476.66 L 593.37 476.66 L 593.37 478.99 L 592.14 479.12 L 592.14 480.22 L 590.91 480.34 L 590.91 481.45 L 589.68 481.57 L 589.68 482.68 L 588.45 482.80 L 588.45 483.91 L 587.22 484.03 L 587.22 485.14 L 586.00 485.26 L 585.87 486.49 L 584.77 486.49 L 584.77 490.05 L 583.54 490.17 L 583.42 491.40 L 581.08 491.40 L 581.08 492.51 L 579.85 492.63 L 579.85 494.96 L 578.62 495.09 L 578.50 496.31 L 576.17 496.31 L 576.17 497.42 L 574.94 497.54 L 574.94 499.88 L 572.48 500.00 L 572.48 501.11 L 571.25 501.23 L 571.13 502.46 L 570.02 502.46 L 569.90 504.91 L 567.57 504.91 L 567.57 506.02 L 566.34 506.14 L 566.22 508.60 L 563.88 508.60 L 563.88 509.71 L 562.65 509.83 L 562.53 511.06 L 560.20 511.06 L 560.20 512.16 L 558.97 512.29 L 558.97 513.39 L 557.74 513.51 L 557.74 514.62 L 556.51 514.74 L 556.51 515.85 L 555.28 515.97 L 555.28 517.08 L 554.05 517.20 L 553.93 518.43 L 551.60 518.43 L 551.47 519.66 L 549.14 519.66 L 549.02 520.88 L 546.68 520.88 L 546.68 521.99 L 545.45 522.11 L 545.45 523.22 L 544.23 523.34 L 544.23 524.45 L 543.00 524.57 L 542.87 525.80 L 540.54 525.80 L 540.42 527.03 L 538.08 527.03 L 537.96 528.26 L 535.63 528.26 L 535.50 529.48 L 517.20 529.48 L 517.08 528.26 L 509.83 528.26 L 509.71 527.03 L 507.37 527.03 L 507.25 525.80 L 501.23 525.80 L 501.11 524.57 L 496.31 524.57 L 496.19 523.34 L 493.86 523.34 L 493.73 522.11 L 491.40 522.11 L 491.28 520.88 L 487.71 520.88 L 487.59 519.66 L 485.26 519.66 L 485.14 518.43 L 482.80 518.43 L 482.68 517.20 L 480.34 517.20 L 480.22 515.97 L 477.89 515.97 L 477.76 514.74 L 475.43 514.74 L 475.31 513.51 L 474.20 513.51 L 474.08 512.29 L 472.97 512.29 L 472.85 511.06 L 471.74 511.06 L 471.62 509.83 L 470.52 509.83 L 470.39 508.60 L 469.16 508.48 L 469.16 507.37 L 466.83 507.37 L 466.71 506.14 L 465.60 506.14 L 465.48 504.91 L 464.37 504.91 L 464.25 503.69 L 463.14 503.69 L 463.02 502.46 L 461.79 502.33 L 461.79 500.00 L 460.69 500.00 L 460.57 498.77 L 459.46 498.77 L 459.34 497.54 L 458.11 497.42 L 458.11 495.09 L 456.88 494.96 L 456.88 490.17 L 455.65 490.05 L 455.65 487.71 L 454.42 487.59 L 454.42 485.26 L 453.19 485.14 L 453.19 476.66 L 451.97 476.54 L 451.97 466.83 L 450.74 466.71 L 450.74 444.72 L 451.97 444.59 L 451.97 433.66 L 453.19 433.54 L 453.19 425.06 L 454.42 424.94 L 454.42 420.15 L 455.65 420.02 L 455.65 417.69 L 456.88 417.57 L 456.88 412.78 L 458.11 412.65 L 458.11 406.63 L 459.34 406.51 L 459.46 405.28 L 460.57 405.28 L 460.57 402.95 L 461.79 402.83 L 461.79 398.03 L 463.02 397.91 L 463.02 395.58 L 464.25 395.45 L 464.37 394.23 L 465.48 394.23 L 465.48 389.43 L 466.71 389.31 L 466.71 386.98 L 467.94 386.86 L 467.94 383.29 L 469.16 383.17 L 469.29 381.94 L 470.39 381.94 L 470.39 379.61 L 471.62 379.48 L 471.62 377.15 L 472.85 377.03 L 472.85 374.69 L 474.08 374.57 L 474.08 372.24 L 475.31 372.11 L 475.43 370.88 L 476.54 370.88 L 476.54 368.55 L 477.76 368.43 L 477.76 366.09 L 478.99 365.97 L 478.99 364.86 L 480.22 364.74 L 480.34 363.51 L 481.45 363.51 L 481.45 359.95 L 482.68 359.83 L 482.68 358.72 L 483.91 358.60 L 484.03 357.37 L 485.14 357.37 L 485.14 355.04 L 486.36 354.91 L 486.36 353.81 L 487.59 353.69 L 487.59 352.58 L 488.82 352.46 L 488.94 351.23 L 490.05 351.23 L 490.05 347.67 L 491.28 347.54 L 491.40 346.31 L 493.73 346.31 L 493.73 345.21 L 494.96 345.09 L 494.96 342.75 L 496.19 342.63 L 496.31 341.40 L 498.65 341.40 L 498.65 340.29 L 499.88 340.17 L 499.88 337.84 L 501.11 337.71 L 501.11 336.61 L 502.33 336.49 L 502.33 335.38 L 503.56 335.26 L 503.56 334.15 L 504.79 334.03 L 504.79 332.92 L 506.02 332.80 L 506.02 331.70 L 507.25 331.57 L 507.25 330.47 L 508.48 330.34 L 508.48 329.24 L 509.71 329.12 L 509.71 328.01 L 510.93 327.89 L 510.93 326.78 L 512.16 326.66 L 512.16 325.55 L 513.39 325.43 L 513.51 324.20 L 515.85 324.20 L 515.97 322.97 L 518.30 322.97 L 518.30 321.87 L 519.53 321.74 L 519.53 320.64 L 520.76 320.52 L 520.76 319.41 L 521.99 319.29 L 522.11 318.06 L 524.45 318.06 L 524.45 316.95 L 525.68 316.83 L 525.68 315.72 L 526.90 315.60 L 527.03 314.37 L 529.36 314.37 L 529.48 313.14 L 531.82 313.14 L 531.94 311.92 L 534.28 311.92 L 534.40 310.69 L 536.73 310.69 L 536.86 309.46 L 539.19 309.46 L 539.31 308.23 L 541.65 308.23 L 541.65 307.13 L 542.87 307.00 L 542.87 305.90 L 544.10 305.77 L 544.23 304.55 L 546.56 304.55 L 546.68 303.32 L 549.02 303.32 L 549.14 302.09 L 552.70 302.09 L 552.83 300.86 L 555.16 300.86 L 555.28 299.63 L 557.62 299.63 L 557.74 298.40 L 561.30 298.40 L 561.43 297.17 L 563.76 297.17 L 563.88 295.95 L 566.22 295.95 L 566.34 294.72 L 571.13 294.72 L 571.25 293.49 L 576.04 293.49 L 576.17 292.26 L 578.50 292.26 L 578.62 291.03 L 583.42 291.03 L 583.54 289.80 L 588.33 289.80 L 588.45 288.57 L 594.47 288.57 L 594.59 287.35 L 596.93 287.35 L 597.05 286.12 L 605.53 286.12 L 605.65 284.89 L 615.36 284.89 L 615.48 283.66 L 627.64 283.66 L 627.76 284.89 L 630.10 284.89 L 630.22 286.12 Z
    M 242.01 213.64 L 243.12 213.64 L 243.24 214.86 L 245.58 214.86 L 245.70 216.09 L 248.16 216.22 L 248.16 223.46 L 249.39 223.59 L 249.39 230.84 L 250.61 230.96 L 250.61 236.98 L 251.84 237.10 L 251.84 239.43 L 253.07 239.56 L 253.07 244.35 L 254.30 244.47 L 254.30 249.26 L 255.53 249.39 L 255.53 254.18 L 256.63 254.18 L 256.76 255.41 L 257.99 255.53 L 257.99 261.55 L 259.21 261.67 L 259.21 264.00 L 260.44 264.13 L 260.44 268.92 L 261.55 268.92 L 261.67 270.15 L 262.90 270.27 L 262.90 278.75 L 260.44 278.87 L 260.32 280.10 L 257.99 280.10 L 257.86 281.33 L 256.76 281.33 L 256.63 280.10 L 254.30 280.10 L 254.18 278.87 L 249.39 278.87 L 249.26 277.64 L 243.24 277.64 L 243.12 276.41 L 235.87 276.41 L 235.75 275.18 L 232.19 275.18 L 232.06 273.96 L 227.27 273.96 L 227.15 272.73 L 218.67 272.73 L 218.55 271.50 L 216.22 271.50 L 216.09 270.27 L 213.76 270.27 L 213.64 269.04 L 211.18 268.92 L 211.18 262.90 L 212.41 262.78 L 212.41 259.21 L 213.64 259.09 L 213.76 257.86 L 214.86 257.86 L 214.86 254.30 L 216.09 254.18 L 216.09 251.84 L 217.32 251.72 L 217.32 249.39 L 218.55 249.26 L 218.55 245.70 L 219.78 245.58 L 219.78 243.24 L 221.01 243.12 L 221.01 240.79 L 222.24 240.66 L 222.36 239.43 L 223.46 239.43 L 223.46 235.87 L 224.69 235.75 L 224.82 234.52 L 225.92 234.52 L 225.92 232.19 L 227.15 232.06 L 227.27 230.84 L 228.38 230.84 L 228.38 228.50 L 229.61 228.38 L 229.61 226.04 L 230.84 225.92 L 230.84 223.59 L 232.06 223.46 L 232.06 222.36 L 233.29 222.24 L 233.42 221.01 L 234.52 221.01 L 234.52 218.67 L 235.75 218.55 L 235.75 217.44 L 236.98 217.32 L 237.10 216.09 L 239.43 216.09 L 239.56 214.86 L 241.89 214.86 Z
    M 583.42 198.89 L 583.54 200.12 L 585.87 200.12 L 586.00 201.35 L 588.33 201.35 L 588.45 202.58 L 589.56 202.58 L 589.68 203.81 L 590.79 203.81 L 590.91 205.04 L 592.01 205.04 L 592.14 206.27 L 593.24 206.27 L 593.37 207.49 L 594.59 207.62 L 594.59 211.18 L 595.70 211.18 L 595.82 212.41 L 596.93 212.41 L 597.05 213.64 L 598.28 213.76 L 598.28 216.09 L 599.39 216.09 L 599.51 217.32 L 600.61 217.32 L 600.74 218.55 L 601.84 218.55 L 601.97 219.78 L 603.19 219.90 L 603.19 223.46 L 604.30 223.46 L 604.42 224.69 L 605.53 224.69 L 605.65 225.92 L 606.88 226.04 L 606.88 228.38 L 608.11 228.50 L 608.11 230.84 L 609.21 230.84 L 609.34 232.06 L 610.57 232.19 L 610.57 234.52 L 611.67 234.52 L 611.79 235.75 L 613.02 235.87 L 613.02 239.43 L 614.25 239.56 L 614.25 241.89 L 615.36 241.89 L 615.48 243.12 L 616.71 243.24 L 616.71 246.81 L 617.94 246.93 L 617.94 249.26 L 619.16 249.39 L 619.16 251.72 L 620.27 251.72 L 620.39 252.95 L 621.62 253.07 L 621.62 260.32 L 619.16 260.44 L 619.04 261.67 L 616.71 261.67 L 616.58 262.90 L 609.34 262.90 L 609.21 264.13 L 598.28 264.13 L 598.16 265.36 L 594.59 265.36 L 594.47 266.58 L 590.91 266.58 L 590.79 267.81 L 581.08 267.81 L 580.96 269.04 L 577.40 269.04 L 577.27 270.27 L 574.94 270.27 L 574.82 271.50 L 570.02 271.50 L 569.90 270.27 L 567.57 270.27 L 567.44 269.04 L 564.99 268.92 L 564.99 261.67 L 566.22 261.55 L 566.22 257.99 L 567.44 257.86 L 567.44 255.53 L 568.67 255.41 L 568.67 248.16 L 569.90 248.03 L 569.90 242.01 L 571.13 241.89 L 571.13 234.64 L 572.36 234.52 L 572.36 232.19 L 573.59 232.06 L 573.59 219.90 L 574.82 219.78 L 574.82 208.85 L 576.04 208.72 L 576.17 207.49 L 577.27 207.49 L 577.27 201.47 L 579.73 201.35 L 579.85 200.12 L 582.19 200.12 L 582.19 199.02 Z
    M 343.98 133.78 L 347.54 133.78 L 347.67 135.01 L 350.00 135.01 L 350.12 136.24 L 352.58 136.36 L 352.58 138.70 L 353.69 138.70 L 353.81 139.93 L 354.91 139.93 L 355.04 141.15 L 356.27 141.28 L 356.27 144.84 L 357.37 144.84 L 357.49 146.07 L 358.60 146.07 L 358.72 147.30 L 359.95 147.42 L 359.95 149.75 L 361.06 149.75 L 361.18 150.98 L 362.41 151.11 L 362.41 153.44 L 363.51 153.44 L 363.64 154.67 L 364.86 154.79 L 364.86 158.35 L 366.09 158.48 L 366.09 160.81 L 367.32 160.93 L 367.32 163.27 L 368.43 163.27 L 368.55 164.50 L 369.78 164.62 L 369.78 168.18 L 371.01 168.30 L 371.01 170.64 L 372.24 170.76 L 372.24 175.55 L 373.34 175.55 L 373.46 176.78 L 374.69 176.90 L 374.69 179.24 L 375.92 179.36 L 375.92 184.15 L 377.15 184.28 L 377.15 189.07 L 378.26 189.07 L 378.38 190.29 L 379.61 190.42 L 379.61 192.75 L 380.84 192.87 L 380.84 198.89 L 382.06 199.02 L 382.06 201.35 L 383.29 201.47 L 383.29 206.27 L 384.52 206.39 L 384.52 214.86 L 385.75 214.99 L 385.75 224.69 L 386.86 224.69 L 386.98 225.92 L 388.21 226.04 L 388.21 234.52 L 389.43 234.64 L 389.43 289.80 L 388.21 289.93 L 388.21 295.95 L 386.98 296.07 L 386.98 299.63 L 385.75 299.75 L 385.75 310.69 L 384.52 310.81 L 384.52 320.52 L 383.29 320.64 L 383.29 325.43 L 382.06 325.55 L 382.06 327.89 L 380.84 328.01 L 380.84 336.49 L 379.61 336.61 L 379.61 342.63 L 378.38 342.75 L 378.38 347.54 L 377.15 347.67 L 377.15 350.00 L 375.92 350.12 L 375.92 356.14 L 374.69 356.27 L 374.69 361.06 L 372.24 361.18 L 372.11 362.41 L 369.78 362.41 L 369.66 363.64 L 368.55 363.64 L 368.43 362.41 L 366.09 362.41 L 365.97 361.18 L 363.64 361.18 L 363.51 358.72 L 362.41 358.72 L 362.29 357.49 L 361.18 357.49 L 361.06 356.27 L 359.95 356.27 L 359.83 355.04 L 358.60 354.91 L 358.60 352.58 L 357.49 352.58 L 357.37 351.35 L 356.27 351.35 L 356.14 350.12 L 354.91 350.00 L 354.91 347.67 L 353.81 347.67 L 353.69 346.44 L 352.58 346.44 L 352.46 345.21 L 351.23 345.09 L 351.23 342.75 L 350.12 342.75 L 350.00 341.52 L 348.89 341.52 L 348.77 340.29 L 347.67 340.29 L 347.54 339.07 L 346.44 339.07 L 346.31 337.84 L 345.21 337.84 L 345.09 336.61 L 343.98 336.61 L 343.86 335.38 L 342.75 335.38 L 342.63 334.15 L 341.52 334.15 L 341.40 332.92 L 340.29 332.92 L 340.17 331.70 L 339.07 331.70 L 338.94 330.47 L 337.84 330.47 L 337.71 329.24 L 336.61 329.24 L 336.49 328.01 L 335.38 328.01 L 335.26 326.78 L 334.15 326.78 L 334.03 325.55 L 332.92 325.55 L 332.80 324.32 L 331.70 324.32 L 331.57 323.10 L 330.47 323.10 L 330.34 321.87 L 329.12 321.74 L 329.12 320.64 L 326.78 320.64 L 326.66 319.41 L 324.32 319.41 L 324.20 318.18 L 323.10 318.18 L 322.97 316.95 L 321.74 316.83 L 321.74 315.72 L 319.41 315.72 L 319.29 314.50 L 318.18 314.50 L 318.06 313.27 L 316.95 313.27 L 316.83 312.04 L 315.72 312.04 L 315.60 310.81 L 314.50 310.81 L 314.37 309.58 L 313.14 309.46 L 313.14 308.35 L 310.81 308.35 L 310.69 307.13 L 309.58 307.13 L 309.46 305.90 L 308.35 305.90 L 308.23 304.67 L 307.13 304.67 L 307.00 303.44 L 305.90 303.44 L 305.77 302.21 L 304.67 302.21 L 304.55 300.98 L 303.32 300.86 L 303.32 298.53 L 302.21 298.53 L 302.09 297.30 L 300.98 297.30 L 300.86 296.07 L 299.75 296.07 L 299.63 294.84 L 298.40 294.72 L 298.40 292.38 L 297.30 292.38 L 297.17 291.15 L 296.07 291.15 L 295.95 289.93 L 294.72 289.80 L 294.72 286.24 L 293.49 286.12 L 293.49 283.78 L 292.38 283.78 L 292.26 282.56 L 291.15 282.56 L 291.03 281.33 L 289.80 281.20 L 289.80 277.64 L 288.57 277.52 L 288.57 275.18 L 287.47 275.18 L 287.35 273.96 L 286.12 273.83 L 286.12 271.50 L 284.89 271.38 L 284.89 266.58 L 283.78 266.58 L 283.66 265.36 L 282.43 265.23 L 282.43 262.90 L 281.20 262.78 L 281.20 259.21 L 279.98 259.09 L 279.98 254.30 L 278.87 254.30 L 278.75 253.07 L 277.52 252.95 L 277.52 249.39 L 276.29 249.26 L 276.29 244.47 L 275.06 244.35 L 275.06 238.33 L 273.96 238.33 L 273.83 237.10 L 272.60 236.98 L 272.60 232.19 L 271.38 232.06 L 271.38 224.82 L 270.15 224.69 L 270.15 218.67 L 269.04 218.67 L 268.92 217.44 L 267.69 217.32 L 267.69 208.85 L 266.46 208.72 L 266.46 197.79 L 265.23 197.67 L 265.23 183.05 L 266.46 182.92 L 266.46 181.82 L 267.69 181.70 L 267.69 180.59 L 268.92 180.47 L 268.92 179.36 L 270.15 179.24 L 270.15 178.13 L 271.38 178.01 L 271.38 176.90 L 272.60 176.78 L 272.60 175.68 L 273.83 175.55 L 273.96 174.32 L 276.29 174.32 L 276.29 173.22 L 277.52 173.10 L 277.52 171.99 L 278.75 171.87 L 278.75 170.76 L 279.98 170.64 L 279.98 169.53 L 281.20 169.41 L 281.33 168.18 L 283.66 168.18 L 283.66 167.08 L 284.89 166.95 L 284.89 165.85 L 286.12 165.72 L 286.24 164.50 L 288.57 164.50 L 288.70 163.27 L 291.03 163.27 L 291.03 162.16 L 292.26 162.04 L 292.26 160.93 L 293.49 160.81 L 293.49 159.71 L 294.72 159.58 L 294.84 158.35 L 297.17 158.35 L 297.17 157.25 L 298.40 157.13 L 298.53 155.90 L 300.86 155.90 L 300.98 154.67 L 303.32 154.67 L 303.44 153.44 L 305.77 153.44 L 305.77 152.33 L 307.00 152.21 L 307.00 151.11 L 308.23 150.98 L 308.35 149.75 L 310.69 149.75 L 310.81 148.53 L 313.14 148.53 L 313.27 147.30 L 315.60 147.30 L 315.72 146.07 L 318.06 146.07 L 318.18 144.84 L 320.52 144.84 L 320.64 143.61 L 322.97 143.61 L 323.10 142.38 L 325.43 142.38 L 325.55 141.15 L 327.89 141.15 L 328.01 139.93 L 332.80 139.93 L 332.92 138.70 L 335.26 138.70 L 335.38 137.47 L 337.71 137.47 L 337.84 136.24 L 341.40 136.24 L 341.52 135.01 L 343.86 135.01 Z
    M 384.52 122.73 L 397.91 122.73 L 398.03 121.50 L 439.68 121.50 L 439.80 122.73 L 451.97 122.73 L 452.09 123.96 L 456.88 123.96 L 457.00 125.18 L 461.79 125.18 L 461.92 126.41 L 469.16 126.41 L 469.29 127.64 L 474.08 127.64 L 474.20 128.87 L 476.54 128.87 L 476.66 130.10 L 481.45 130.10 L 481.57 131.33 L 486.36 131.33 L 486.49 132.56 L 488.82 132.56 L 488.94 133.78 L 491.28 133.78 L 491.40 135.01 L 496.19 135.01 L 496.31 136.24 L 498.65 136.24 L 498.77 137.47 L 501.11 137.47 L 501.23 138.70 L 503.56 138.70 L 503.69 139.93 L 508.48 139.93 L 508.60 141.15 L 510.93 141.15 L 511.06 142.38 L 513.39 142.38 L 513.51 143.61 L 514.74 143.73 L 514.74 144.84 L 517.08 144.84 L 517.20 146.07 L 519.53 146.07 L 519.66 147.30 L 521.99 147.30 L 522.11 148.53 L 524.45 148.53 L 524.57 149.75 L 526.90 149.75 L 527.03 150.98 L 529.36 150.98 L 529.48 152.21 L 530.71 152.33 L 530.71 153.44 L 533.05 153.44 L 533.17 154.67 L 535.50 154.67 L 535.63 155.90 L 537.96 155.90 L 538.08 157.13 L 539.31 157.25 L 539.31 158.35 L 541.65 158.35 L 541.77 159.58 L 542.87 159.58 L 543.00 160.81 L 544.23 160.93 L 544.23 162.04 L 546.56 162.04 L 546.68 163.27 L 547.79 163.27 L 547.91 164.50 L 549.14 164.62 L 549.14 165.72 L 551.47 165.72 L 551.60 166.95 L 553.93 166.95 L 554.05 168.18 L 555.16 168.18 L 555.28 169.41 L 556.51 169.53 L 556.51 198.89 L 555.28 199.02 L 555.16 200.25 L 554.05 200.25 L 554.05 216.09 L 552.83 216.22 L 552.83 227.15 L 551.60 227.27 L 551.60 234.52 L 550.37 234.64 L 550.25 235.87 L 549.14 235.87 L 549.14 244.35 L 547.91 244.47 L 547.91 249.26 L 546.68 249.39 L 546.68 254.18 L 545.45 254.30 L 545.33 255.53 L 544.23 255.53 L 544.23 261.55 L 543.00 261.67 L 543.00 264.00 L 541.77 264.13 L 541.77 268.92 L 540.54 269.04 L 540.42 270.27 L 539.31 270.27 L 539.31 272.60 L 538.08 272.73 L 538.08 276.29 L 536.86 276.41 L 536.86 278.75 L 535.63 278.87 L 535.63 281.20 L 534.40 281.33 L 534.28 282.56 L 533.17 282.56 L 533.17 286.12 L 531.94 286.24 L 531.94 287.35 L 530.71 287.47 L 530.59 288.70 L 528.26 288.70 L 528.13 289.93 L 525.80 289.93 L 525.68 291.15 L 523.34 291.15 L 523.34 292.26 L 522.11 292.38 L 522.11 293.49 L 520.88 293.61 L 520.76 294.84 L 518.43 294.84 L 518.30 296.07 L 515.97 296.07 L 515.85 297.30 L 513.51 297.30 L 513.51 298.40 L 512.29 298.53 L 512.16 299.75 L 509.83 299.75 L 509.83 300.86 L 508.60 300.98 L 508.60 302.09 L 507.37 302.21 L 507.37 303.32 L 506.14 303.44 L 506.14 304.55 L 504.91 304.67 L 504.79 305.90 L 502.46 305.90 L 502.46 307.00 L 501.23 307.13 L 501.23 308.23 L 500.00 308.35 L 499.88 309.58 L 497.54 309.58 L 497.54 310.69 L 496.31 310.81 L 496.31 313.14 L 495.09 313.27 L 494.96 314.50 L 492.63 314.50 L 492.51 315.72 L 490.17 315.72 L 490.17 316.83 L 488.94 316.95 L 488.94 318.06 L 487.71 318.18 L 487.71 319.29 L 486.49 319.41 L 486.49 320.52 L 485.26 320.64 L 485.26 321.74 L 484.03 321.87 L 483.91 323.10 L 482.80 323.10 L 482.80 325.43 L 481.57 325.55 L 481.57 326.66 L 480.34 326.78 L 480.34 327.89 L 479.12 328.01 L 478.99 329.24 L 477.89 329.24 L 477.89 331.57 L 476.66 331.70 L 476.54 332.92 L 474.20 332.92 L 474.20 334.03 L 472.97 334.15 L 472.97 337.71 L 471.74 337.84 L 471.74 338.94 L 470.52 339.07 L 470.39 340.29 L 469.29 340.29 L 469.29 342.63 L 468.06 342.75 L 468.06 343.86 L 466.83 343.98 L 466.83 345.09 L 465.60 345.21 L 465.48 346.44 L 464.37 346.44 L 464.37 350.00 L 463.14 350.12 L 463.14 351.23 L 461.92 351.35 L 461.79 352.58 L 460.69 352.58 L 460.69 354.91 L 459.46 355.04 L 459.34 356.27 L 458.23 356.27 L 458.23 358.60 L 457.00 358.72 L 456.88 359.95 L 455.77 359.95 L 455.77 363.51 L 454.55 363.64 L 454.55 365.97 L 453.32 366.09 L 453.32 368.43 L 452.09 368.55 L 451.97 369.78 L 450.86 369.78 L 450.86 373.34 L 449.63 373.46 L 449.63 375.80 L 448.40 375.92 L 448.28 377.15 L 447.17 377.15 L 447.17 379.48 L 445.95 379.61 L 445.95 383.17 L 444.72 383.29 L 444.72 385.63 L 443.49 385.75 L 443.37 386.98 L 442.26 386.98 L 442.26 391.77 L 441.03 391.89 L 441.03 396.68 L 439.80 396.81 L 439.80 400.37 L 438.57 400.49 L 438.45 401.72 L 437.35 401.72 L 437.35 406.51 L 436.12 406.63 L 436.12 411.43 L 434.89 411.55 L 434.89 418.80 L 433.66 418.92 L 433.54 420.15 L 432.43 420.15 L 432.43 427.40 L 431.20 427.52 L 431.20 439.68 L 429.98 439.80 L 429.98 471.62 L 431.20 471.74 L 431.20 482.68 L 432.43 482.80 L 432.43 488.82 L 433.66 488.94 L 433.66 491.28 L 434.89 491.40 L 434.89 496.19 L 436.12 496.31 L 436.12 501.11 L 437.35 501.23 L 437.35 504.79 L 438.45 504.79 L 438.57 506.02 L 439.80 506.14 L 439.80 508.48 L 441.03 508.60 L 441.03 510.93 L 442.14 510.93 L 442.26 512.16 L 443.37 512.16 L 443.49 513.39 L 444.72 513.51 L 444.72 517.08 L 445.82 517.08 L 445.95 518.30 L 448.28 518.30 L 448.40 519.53 L 449.63 519.66 L 449.63 521.99 L 450.74 521.99 L 450.86 523.22 L 453.19 523.22 L 453.32 524.45 L 454.42 524.45 L 454.55 525.68 L 455.77 525.80 L 455.77 526.90 L 458.11 526.90 L 458.23 528.13 L 459.34 528.13 L 459.46 529.36 L 460.57 529.36 L 460.69 530.59 L 461.92 530.71 L 461.92 531.82 L 464.25 531.82 L 464.37 533.05 L 465.48 533.05 L 465.60 534.28 L 466.83 534.40 L 466.83 535.50 L 469.16 535.50 L 469.29 536.73 L 471.62 536.73 L 471.74 537.96 L 474.08 537.96 L 474.20 539.19 L 476.54 539.19 L 476.66 540.42 L 481.45 540.42 L 481.57 541.65 L 483.91 541.65 L 484.03 542.87 L 486.36 542.87 L 486.49 544.10 L 488.82 544.10 L 488.94 545.33 L 490.17 545.45 L 490.17 551.47 L 487.71 551.60 L 487.59 552.83 L 485.26 552.83 L 485.14 554.05 L 482.80 554.05 L 482.68 555.28 L 479.12 555.28 L 478.99 556.51 L 472.97 556.51 L 472.85 557.74 L 466.83 557.74 L 466.71 558.97 L 464.37 558.97 L 464.25 560.20 L 458.23 560.20 L 458.11 561.43 L 448.40 561.43 L 448.28 562.65 L 437.35 562.65 L 437.22 563.88 L 434.89 563.88 L 434.77 565.11 L 433.66 565.11 L 433.54 563.88 L 425.06 563.88 L 424.94 565.11 L 410.32 565.11 L 410.20 563.88 L 400.49 563.88 L 400.37 562.65 L 389.43 562.65 L 389.31 561.43 L 378.38 561.43 L 378.26 560.20 L 372.24 560.20 L 372.11 558.97 L 369.78 558.97 L 369.66 557.74 L 363.64 557.74 L 363.51 556.51 L 356.27 556.51 L 356.14 555.28 L 353.81 555.28 L 353.69 554.05 L 351.35 554.05 L 351.23 552.83 L 348.89 552.83 L 348.77 551.60 L 346.31 551.47 L 346.31 545.45 L 348.77 545.33 L 348.77 544.23 L 350.00 544.10 L 350.00 543.00 L 351.23 542.87 L 351.35 541.65 L 353.69 541.65 L 353.81 540.42 L 356.14 540.42 L 356.14 539.31 L 357.37 539.19 L 357.37 538.08 L 358.60 537.96 L 358.60 536.86 L 359.83 536.73 L 359.83 535.63 L 361.06 535.50 L 361.06 534.40 L 362.29 534.28 L 362.29 533.17 L 363.51 533.05 L 363.51 531.94 L 364.74 531.82 L 364.74 530.71 L 365.97 530.59 L 365.97 529.48 L 367.20 529.36 L 367.20 528.26 L 368.43 528.13 L 368.43 527.03 L 369.66 526.90 L 369.78 525.68 L 370.88 525.68 L 370.88 523.34 L 372.11 523.22 L 372.11 520.88 L 373.34 520.76 L 373.46 519.53 L 374.57 519.53 L 374.57 517.20 L 375.80 517.08 L 375.80 515.97 L 377.03 515.85 L 377.15 514.62 L 378.26 514.62 L 378.26 512.29 L 379.48 512.16 L 379.48 509.83 L 380.71 509.71 L 380.84 508.48 L 381.94 508.48 L 381.94 506.14 L 383.17 506.02 L 383.17 501.23 L 384.40 501.11 L 384.52 499.88 L 385.63 499.88 L 385.63 497.54 L 386.86 497.42 L 386.86 493.86 L 388.08 493.73 L 388.08 488.94 L 389.31 488.82 L 389.31 484.03 L 390.54 483.91 L 390.54 481.57 L 391.77 481.45 L 391.77 470.52 L 393.00 470.39 L 393.00 445.95 L 391.77 445.82 L 391.77 428.75 L 390.54 428.62 L 390.54 425.06 L 389.31 424.94 L 389.31 386.98 L 390.54 386.86 L 390.54 384.52 L 391.77 384.40 L 391.77 373.46 L 393.00 373.34 L 393.00 368.55 L 394.23 368.43 L 394.35 367.20 L 395.45 367.20 L 395.45 361.18 L 396.68 361.06 L 396.68 355.04 L 399.14 354.91 L 399.26 353.69 L 401.60 353.69 L 401.72 352.46 L 402.83 352.46 L 402.95 353.69 L 405.28 353.69 L 405.41 354.91 L 407.74 354.91 L 407.86 365.97 L 408.97 365.97 L 409.09 367.20 L 410.32 367.32 L 410.32 368.43 L 416.34 368.43 L 416.46 367.20 L 418.80 367.20 L 418.92 365.97 L 421.25 365.97 L 421.38 364.74 L 424.94 364.74 L 425.06 363.51 L 427.40 363.51 L 427.40 362.41 L 428.62 362.29 L 428.75 361.06 L 431.08 361.06 L 431.20 359.83 L 433.54 359.83 L 433.66 358.60 L 436.00 358.60 L 436.00 357.49 L 437.22 357.37 L 437.22 356.27 L 438.45 356.14 L 438.45 355.04 L 439.68 354.91 L 439.68 353.81 L 440.91 353.69 L 440.91 352.58 L 442.14 352.46 L 442.14 351.35 L 443.37 351.23 L 443.37 350.12 L 444.59 350.00 L 444.72 348.77 L 447.05 348.77 L 447.05 347.67 L 448.28 347.54 L 448.28 345.21 L 449.51 345.09 L 449.51 343.98 L 450.74 343.86 L 450.74 342.75 L 451.97 342.63 L 451.97 341.52 L 453.19 341.40 L 453.32 340.17 L 454.42 340.17 L 454.42 337.84 L 455.65 337.71 L 455.65 335.38 L 456.88 335.26 L 457.00 334.03 L 458.11 334.03 L 458.11 331.70 L 459.34 331.57 L 459.46 330.34 L 460.57 330.34 L 460.57 328.01 L 461.79 327.89 L 461.79 323.10 L 463.02 322.97 L 463.02 310.81 L 464.25 310.69 L 464.25 300.98 L 463.02 300.86 L 463.02 289.93 L 464.25 289.80 L 464.25 280.10 L 465.48 279.98 L 465.60 278.75 L 466.71 278.75 L 466.71 275.18 L 465.60 275.18 L 465.48 273.96 L 464.25 273.83 L 464.25 272.73 L 458.23 272.73 L 458.23 273.83 L 457.00 273.96 L 457.00 275.06 L 455.77 275.18 L 455.65 276.41 L 453.32 276.41 L 453.32 277.52 L 452.09 277.64 L 452.09 278.75 L 450.86 278.87 L 450.74 280.10 L 448.40 280.10 L 448.28 281.33 L 445.95 281.33 L 445.95 282.43 L 444.72 282.56 L 444.72 283.66 L 443.49 283.78 L 443.37 285.01 L 441.03 285.01 L 440.91 286.24 L 438.57 286.24 L 438.45 287.47 L 434.89 287.47 L 434.89 288.57 L 433.66 288.70 L 433.66 289.80 L 432.43 289.93 L 432.31 291.15 L 429.98 291.15 L 429.98 292.26 L 428.75 292.38 L 428.75 293.49 L 427.52 293.61 L 427.52 294.72 L 426.29 294.84 L 426.17 296.07 L 423.83 296.07 L 423.83 297.17 L 422.60 297.30 L 422.48 298.53 L 421.38 298.53 L 421.38 300.86 L 420.15 300.98 L 420.15 302.09 L 418.92 302.21 L 418.80 303.44 L 416.46 303.44 L 416.34 304.67 L 414.00 304.67 L 414.00 305.77 L 412.78 305.90 L 412.65 304.67 L 410.32 304.67 L 410.20 303.44 L 407.74 303.32 L 407.74 296.07 L 408.97 295.95 L 408.97 292.38 L 410.20 292.26 L 410.20 232.19 L 412.65 232.06 L 412.78 230.84 L 415.11 230.84 L 415.23 229.61 L 420.02 229.61 L 420.15 228.38 L 423.71 228.38 L 423.83 227.15 L 426.17 227.15 L 426.29 225.92 L 428.62 225.92 L 428.75 224.69 L 431.08 224.69 L 431.20 223.46 L 433.54 223.46 L 433.54 222.36 L 434.77 222.24 L 434.89 221.01 L 437.22 221.01 L 437.35 219.78 L 439.68 219.78 L 439.68 218.67 L 440.91 218.55 L 440.91 217.44 L 442.14 217.32 L 442.26 216.09 L 444.59 216.09 L 444.59 214.99 L 445.82 214.86 L 445.82 213.76 L 447.05 213.64 L 447.05 212.53 L 448.28 212.41 L 448.28 211.30 L 449.51 211.18 L 449.51 210.07 L 450.74 209.95 L 450.74 208.85 L 451.97 208.72 L 451.97 207.62 L 453.19 207.49 L 453.19 206.39 L 454.42 206.27 L 454.42 205.16 L 455.65 205.04 L 455.65 203.93 L 456.88 203.81 L 456.88 202.70 L 458.11 202.58 L 458.11 201.47 L 459.34 201.35 L 459.34 200.25 L 460.57 200.12 L 460.69 198.89 L 461.79 198.89 L 461.79 196.56 L 463.02 196.44 L 463.14 195.21 L 464.25 195.21 L 464.25 191.65 L 465.48 191.52 L 465.60 190.29 L 466.71 190.29 L 466.71 186.73 L 467.94 186.61 L 467.94 180.59 L 469.16 180.47 L 469.29 179.24 L 470.39 179.24 L 470.39 151.11 L 471.62 150.98 L 471.62 138.82 L 470.52 138.82 L 470.39 137.59 L 463.14 137.59 L 463.14 138.70 L 461.92 138.82 L 461.92 139.93 L 460.69 140.05 L 460.57 141.28 L 458.23 141.28 L 458.11 142.51 L 455.77 142.51 L 455.65 143.73 L 453.32 143.73 L 453.32 144.84 L 452.09 144.96 L 451.97 146.19 L 449.63 146.19 L 449.51 147.42 L 447.17 147.42 L 447.05 148.65 L 444.72 148.65 L 444.59 149.88 L 442.26 149.88 L 442.14 151.11 L 439.80 151.11 L 439.68 152.33 L 437.35 152.33 L 437.35 153.44 L 436.12 153.56 L 436.00 154.79 L 433.66 154.79 L 433.54 156.02 L 431.20 156.02 L 431.20 157.13 L 429.98 157.25 L 429.98 158.35 L 428.75 158.48 L 428.75 159.58 L 427.52 159.71 L 427.52 160.81 L 426.29 160.93 L 426.17 162.16 L 425.06 162.16 L 425.06 165.72 L 423.83 165.85 L 423.83 166.95 L 422.60 167.08 L 422.48 168.30 L 421.38 168.30 L 421.38 170.64 L 420.15 170.76 L 420.15 171.87 L 418.92 171.99 L 418.80 173.22 L 417.69 173.22 L 417.69 175.55 L 416.46 175.68 L 416.46 179.24 L 415.23 179.36 L 415.11 180.59 L 414.00 180.59 L 414.00 182.92 L 412.78 183.05 L 412.78 189.07 L 410.32 189.19 L 410.20 190.42 L 407.86 190.42 L 407.86 191.52 L 406.63 191.65 L 406.51 190.42 L 404.18 190.42 L 404.05 189.19 L 401.72 189.19 L 401.60 187.96 L 400.37 187.84 L 400.37 181.82 L 399.26 181.82 L 399.14 180.59 L 397.91 180.47 L 397.91 178.13 L 396.68 178.01 L 396.68 173.22 L 395.58 173.22 L 395.45 171.99 L 394.23 171.87 L 394.23 167.08 L 393.00 166.95 L 393.00 164.62 L 391.77 164.50 L 391.77 159.71 L 390.66 159.71 L 390.54 158.48 L 389.31 158.35 L 389.31 156.02 L 388.08 155.90 L 388.08 152.33 L 386.86 152.21 L 386.86 149.88 L 385.75 149.88 L 385.63 148.65 L 384.52 148.65 L 384.40 147.42 L 383.17 147.30 L 383.17 144.96 L 381.94 144.84 L 381.94 141.28 L 380.84 141.28 L 380.71 140.05 L 379.48 139.93 L 379.48 137.59 L 378.38 137.59 L 378.26 136.36 L 377.03 136.24 L 377.03 133.91 L 375.92 133.91 L 375.80 132.68 L 374.57 132.56 L 374.69 126.41 L 377.03 126.41 L 377.15 125.18 L 379.48 125.18 L 379.61 123.96 L 380.71 123.96 L 380.84 125.18 L 381.94 125.18 L 382.06 123.96 L 384.40 123.96 Z
  "/>
</svg>
